<mxfile host="Electron" modified="2024-08-12T15:51:24.192Z" agent="Mozilla/5.0 (Windows NT 10.0; Win64; x64) AppleWebKit/537.36 (KHTML, like Gecko) draw.io/24.4.0 Chrome/120.0.6099.109 Electron/28.1.0 Safari/537.36" etag="p7W755sNfMmnlvm13WmJ" version="24.4.0" type="device" pages="3">
  <diagram name="DeepseekV2ForCausalLM" id="sjKBI5eqnztE4ck6Wnw2">
    <mxGraphModel dx="2256" dy="847" grid="1" gridSize="10" guides="1" tooltips="1" connect="1" arrows="1" fold="1" page="1" pageScale="1" pageWidth="827" pageHeight="1169" math="0" shadow="0">
      <root>
        <mxCell id="0" />
        <mxCell id="1" parent="0" />
        <mxCell id="7gRfSrvLhP0P09sejuVv-4" value="" style="edgeStyle=orthogonalEdgeStyle;rounded=0;orthogonalLoop=1;jettySize=auto;html=1;" parent="1" source="7gRfSrvLhP0P09sejuVv-2" target="7gRfSrvLhP0P09sejuVv-3" edge="1">
          <mxGeometry relative="1" as="geometry" />
        </mxCell>
        <mxCell id="7gRfSrvLhP0P09sejuVv-2" value="&lt;div style=&quot;color: rgb(204, 204, 204); background-color: rgb(31, 31, 31); font-family: Consolas, &amp;quot;Courier New&amp;quot;, monospace; font-size: 14px; line-height: 19px; white-space: pre;&quot;&gt;&lt;span style=&quot;color: #ce9178;&quot;&gt;scripts/inference.py&lt;/span&gt;&lt;/div&gt;" style="rounded=1;whiteSpace=wrap;html=1;" parent="1" vertex="1">
          <mxGeometry x="310" y="150" width="180" height="40" as="geometry" />
        </mxCell>
        <mxCell id="7gRfSrvLhP0P09sejuVv-6" value="" style="edgeStyle=orthogonalEdgeStyle;rounded=0;orthogonalLoop=1;jettySize=auto;html=1;" parent="1" source="7gRfSrvLhP0P09sejuVv-3" target="7gRfSrvLhP0P09sejuVv-5" edge="1">
          <mxGeometry relative="1" as="geometry" />
        </mxCell>
        <mxCell id="7gRfSrvLhP0P09sejuVv-3" value="&lt;div style=&quot;color: rgb(204, 204, 204); background-color: rgb(31, 31, 31); font-family: Consolas, &amp;quot;Courier New&amp;quot;, monospace; font-size: 14px; line-height: 19px; white-space: pre;&quot;&gt;text_encoder&lt;/div&gt;" style="whiteSpace=wrap;html=1;rounded=1;" parent="1" vertex="1">
          <mxGeometry x="340" y="260" width="120" height="60" as="geometry" />
        </mxCell>
        <mxCell id="7gRfSrvLhP0P09sejuVv-10" value="" style="edgeStyle=orthogonalEdgeStyle;rounded=0;orthogonalLoop=1;jettySize=auto;html=1;" parent="1" source="7gRfSrvLhP0P09sejuVv-5" target="7gRfSrvLhP0P09sejuVv-9" edge="1">
          <mxGeometry relative="1" as="geometry" />
        </mxCell>
        <mxCell id="7gRfSrvLhP0P09sejuVv-5" value="&lt;div style=&quot;color: #cccccc;background-color: #1f1f1f;font-family: Consolas, &#39;Courier New&#39;, monospace;font-weight: normal;font-size: 14px;line-height: 19px;white-space: pre;&quot;&gt;&lt;div&gt;&lt;span style=&quot;color: #cccccc;&quot;&gt;vae&lt;/span&gt;&lt;/div&gt;&lt;/div&gt;" style="whiteSpace=wrap;html=1;rounded=1;" parent="1" vertex="1">
          <mxGeometry x="340" y="400" width="120" height="60" as="geometry" />
        </mxCell>
        <mxCell id="7gRfSrvLhP0P09sejuVv-8" style="edgeStyle=orthogonalEdgeStyle;rounded=0;orthogonalLoop=1;jettySize=auto;html=1;exitX=0.875;exitY=0.5;exitDx=0;exitDy=0;exitPerimeter=0;entryX=0;entryY=0.5;entryDx=0;entryDy=0;" parent="1" source="7gRfSrvLhP0P09sejuVv-7" target="7gRfSrvLhP0P09sejuVv-5" edge="1">
          <mxGeometry relative="1" as="geometry" />
        </mxCell>
        <mxCell id="7gRfSrvLhP0P09sejuVv-7" value="&lt;div style=&quot;color: rgb(204, 204, 204); background-color: rgb(31, 31, 31); font-family: Consolas, &amp;quot;Courier New&amp;quot;, monospace; font-size: 14px; line-height: 19px; white-space: pre;&quot;&gt;image_size&lt;/div&gt;&lt;div style=&quot;color: rgb(204, 204, 204); background-color: rgb(31, 31, 31); font-family: Consolas, &amp;quot;Courier New&amp;quot;, monospace; font-size: 14px; line-height: 19px; white-space: pre;&quot;&gt;&lt;div style=&quot;line-height: 19px;&quot;&gt;num_frames&lt;/div&gt;&lt;/div&gt;" style="ellipse;shape=cloud;whiteSpace=wrap;html=1;" parent="1" vertex="1">
          <mxGeometry x="80" y="385" width="180" height="90" as="geometry" />
        </mxCell>
        <mxCell id="HFiIFVas6M_uxr22piCY-2" value="" style="edgeStyle=orthogonalEdgeStyle;rounded=0;orthogonalLoop=1;jettySize=auto;html=1;" parent="1" source="7gRfSrvLhP0P09sejuVv-9" target="HFiIFVas6M_uxr22piCY-1" edge="1">
          <mxGeometry relative="1" as="geometry" />
        </mxCell>
        <mxCell id="7gRfSrvLhP0P09sejuVv-9" value="&lt;div style=&quot;color: rgb(204, 204, 204); background-color: rgb(31, 31, 31); font-family: Consolas, &amp;quot;Courier New&amp;quot;, monospace; font-size: 14px; line-height: 19px; white-space: pre;&quot;&gt;model&lt;/div&gt;&lt;div style=&quot;color: rgb(204, 204, 204); background-color: rgb(31, 31, 31); font-family: Consolas, &amp;quot;Courier New&amp;quot;, monospace; font-size: 14px; line-height: 19px; white-space: pre;&quot;&gt;diffusion_model&lt;/div&gt;" style="whiteSpace=wrap;html=1;rounded=1;" parent="1" vertex="1">
          <mxGeometry x="335" y="540" width="130" height="60" as="geometry" />
        </mxCell>
        <mxCell id="7gRfSrvLhP0P09sejuVv-12" style="edgeStyle=orthogonalEdgeStyle;rounded=0;orthogonalLoop=1;jettySize=auto;html=1;exitX=0.875;exitY=0.5;exitDx=0;exitDy=0;exitPerimeter=0;entryX=0;entryY=0.5;entryDx=0;entryDy=0;" parent="1" source="7gRfSrvLhP0P09sejuVv-11" target="7gRfSrvLhP0P09sejuVv-9" edge="1">
          <mxGeometry relative="1" as="geometry" />
        </mxCell>
        <mxCell id="7gRfSrvLhP0P09sejuVv-11" value="&lt;div style=&quot;color: rgb(204, 204, 204); background-color: rgb(31, 31, 31); font-family: Consolas, &amp;quot;Courier New&amp;quot;, monospace; font-size: 14px; line-height: 19px; white-space: pre;&quot;&gt;&lt;span style=&quot;color: #6a9955;&quot;&gt;classifier-free guidance&lt;/span&gt;&lt;/div&gt;" style="ellipse;shape=cloud;whiteSpace=wrap;html=1;" parent="1" vertex="1">
          <mxGeometry x="-80" y="530" width="310" height="80" as="geometry" />
        </mxCell>
        <mxCell id="HFiIFVas6M_uxr22piCY-1" value="&lt;div style=&quot;color: rgb(204, 204, 204); background-color: rgb(31, 31, 31); font-family: Consolas, &amp;quot;Courier New&amp;quot;, monospace; font-size: 14px; line-height: 19px; white-space: pre;&quot;&gt;&lt;div style=&quot;line-height: 19px;&quot;&gt;scheduler&lt;/div&gt;&lt;/div&gt;" style="whiteSpace=wrap;html=1;rounded=1;" parent="1" vertex="1">
          <mxGeometry x="340" y="680" width="120" height="60" as="geometry" />
        </mxCell>
      </root>
    </mxGraphModel>
  </diagram>
  <diagram id="1TQfugmobEfaef1C6rhZ" name="infer">
    <mxGraphModel dx="2256" dy="847" grid="1" gridSize="10" guides="1" tooltips="1" connect="1" arrows="1" fold="1" page="1" pageScale="1" pageWidth="827" pageHeight="1169" math="0" shadow="0">
      <root>
        <mxCell id="0" />
        <mxCell id="1" parent="0" />
        <mxCell id="Gh7OY7FLOXQLXjrtjzkv-2" style="edgeStyle=orthogonalEdgeStyle;rounded=0;orthogonalLoop=1;jettySize=auto;html=1;exitX=0.5;exitY=1;exitDx=0;exitDy=0;entryX=0.5;entryY=0;entryDx=0;entryDy=0;" edge="1" parent="1" source="FScifkORrmZ95QX0KWrM-1" target="Gh7OY7FLOXQLXjrtjzkv-1">
          <mxGeometry relative="1" as="geometry" />
        </mxCell>
        <mxCell id="FScifkORrmZ95QX0KWrM-1" value="prompt" style="rounded=1;whiteSpace=wrap;html=1;" parent="1" vertex="1">
          <mxGeometry x="100" y="130" width="70" height="30" as="geometry" />
        </mxCell>
        <mxCell id="Gh7OY7FLOXQLXjrtjzkv-3" style="edgeStyle=orthogonalEdgeStyle;rounded=0;orthogonalLoop=1;jettySize=auto;html=1;exitX=0.5;exitY=1;exitDx=0;exitDy=0;entryX=0.5;entryY=0;entryDx=0;entryDy=0;" edge="1" parent="1" source="FScifkORrmZ95QX0KWrM-2" target="Gh7OY7FLOXQLXjrtjzkv-1">
          <mxGeometry relative="1" as="geometry" />
        </mxCell>
        <mxCell id="FScifkORrmZ95QX0KWrM-2" value="&lt;div style=&quot;color: rgb(204, 204, 204); background-color: rgb(31, 31, 31); font-family: Consolas, &amp;quot;Courier New&amp;quot;, monospace; font-size: 14px; line-height: 19px; white-space: pre;&quot;&gt;reference_path&lt;/div&gt;" style="rounded=1;whiteSpace=wrap;html=1;" parent="1" vertex="1">
          <mxGeometry x="200" y="130" width="120" height="30" as="geometry" />
        </mxCell>
        <mxCell id="Gh7OY7FLOXQLXjrtjzkv-5" style="edgeStyle=orthogonalEdgeStyle;rounded=0;orthogonalLoop=1;jettySize=auto;html=1;exitX=0.5;exitY=1;exitDx=0;exitDy=0;entryX=0.5;entryY=0;entryDx=0;entryDy=0;" edge="1" parent="1" source="FScifkORrmZ95QX0KWrM-3" target="Gh7OY7FLOXQLXjrtjzkv-1">
          <mxGeometry relative="1" as="geometry" />
        </mxCell>
        <mxCell id="FScifkORrmZ95QX0KWrM-3" value="&lt;div style=&quot;color: rgb(204, 204, 204); background-color: rgb(31, 31, 31); font-family: Consolas, &amp;quot;Courier New&amp;quot;, monospace; font-size: 14px; line-height: 19px; white-space: pre;&quot;&gt;mask_strategy&lt;/div&gt;" style="rounded=1;whiteSpace=wrap;html=1;" parent="1" vertex="1">
          <mxGeometry x="350.25" y="130" width="126.5" height="30" as="geometry" />
        </mxCell>
        <mxCell id="Gh7OY7FLOXQLXjrtjzkv-7" value="" style="edgeStyle=orthogonalEdgeStyle;rounded=0;orthogonalLoop=1;jettySize=auto;html=1;" edge="1" parent="1" source="Gh7OY7FLOXQLXjrtjzkv-1" target="Gh7OY7FLOXQLXjrtjzkv-6">
          <mxGeometry relative="1" as="geometry" />
        </mxCell>
        <mxCell id="Gh7OY7FLOXQLXjrtjzkv-1" value="&lt;div style=&quot;color: #cccccc;background-color: #1f1f1f;font-family: Consolas, &#39;Courier New&#39;, monospace;font-weight: normal;font-size: 14px;line-height: 19px;white-space: pre;&quot;&gt;&lt;div&gt;&lt;span style=&quot;color: #cccccc;&quot;&gt;extract_json_from_prompts&lt;/span&gt;&lt;/div&gt;&lt;/div&gt;" style="rounded=1;whiteSpace=wrap;html=1;" vertex="1" parent="1">
          <mxGeometry x="135" y="240" width="250" height="30" as="geometry" />
        </mxCell>
        <mxCell id="zYhoFAcSyLCYX2WVD4FJ-2" value="" style="edgeStyle=orthogonalEdgeStyle;rounded=0;orthogonalLoop=1;jettySize=auto;html=1;" edge="1" parent="1" source="Gh7OY7FLOXQLXjrtjzkv-6" target="zYhoFAcSyLCYX2WVD4FJ-1">
          <mxGeometry relative="1" as="geometry" />
        </mxCell>
        <mxCell id="Gh7OY7FLOXQLXjrtjzkv-6" value="&lt;div style=&quot;background-color: rgb(31, 31, 31); font-family: Consolas, &amp;quot;Courier New&amp;quot;, monospace; font-size: 14px; line-height: 19px; white-space: pre;&quot;&gt;&lt;font color=&quot;#fd0808&quot;&gt;collect_references_batch&lt;/font&gt;&lt;/div&gt;" style="whiteSpace=wrap;html=1;rounded=1;" vertex="1" parent="1">
          <mxGeometry x="150" y="320" width="220" height="30" as="geometry" />
        </mxCell>
        <mxCell id="zYhoFAcSyLCYX2WVD4FJ-4" value="" style="edgeStyle=orthogonalEdgeStyle;rounded=0;orthogonalLoop=1;jettySize=auto;html=1;" edge="1" parent="1" source="zYhoFAcSyLCYX2WVD4FJ-1" target="zYhoFAcSyLCYX2WVD4FJ-3">
          <mxGeometry relative="1" as="geometry" />
        </mxCell>
        <mxCell id="zYhoFAcSyLCYX2WVD4FJ-1" value="&lt;div style=&quot;color: rgb(204, 204, 204); background-color: rgb(31, 31, 31); font-family: Consolas, &amp;quot;Courier New&amp;quot;, monospace; font-size: 14px; line-height: 19px; white-space: pre;&quot;&gt;&lt;span style=&quot;color: #dcdcaa;&quot;&gt;prepare_multi_resolution_info&lt;/span&gt;&lt;/div&gt;&lt;div style=&quot;background-color: rgb(31, 31, 31); font-family: Consolas, &amp;quot;Courier New&amp;quot;, monospace; font-size: 14px; line-height: 19px; white-space: pre;&quot;&gt;&lt;font color=&quot;#dcdcaa&quot;&gt;准备分辨率和帧数等相关信息&lt;/font&gt;&lt;/div&gt;" style="whiteSpace=wrap;html=1;rounded=1;" vertex="1" parent="1">
          <mxGeometry x="140" y="410" width="240" height="50" as="geometry" />
        </mxCell>
        <mxCell id="zYhoFAcSyLCYX2WVD4FJ-6" value="" style="edgeStyle=orthogonalEdgeStyle;rounded=0;orthogonalLoop=1;jettySize=auto;html=1;" edge="1" parent="1" source="zYhoFAcSyLCYX2WVD4FJ-3" target="zYhoFAcSyLCYX2WVD4FJ-5">
          <mxGeometry relative="1" as="geometry" />
        </mxCell>
        <mxCell id="zYhoFAcSyLCYX2WVD4FJ-8" value="" style="edgeStyle=orthogonalEdgeStyle;rounded=0;orthogonalLoop=1;jettySize=auto;html=1;" edge="1" parent="1" source="zYhoFAcSyLCYX2WVD4FJ-3" target="zYhoFAcSyLCYX2WVD4FJ-7">
          <mxGeometry relative="1" as="geometry" />
        </mxCell>
        <mxCell id="zYhoFAcSyLCYX2WVD4FJ-3" value="切分prompt&lt;div&gt;&lt;div style=&quot;color: rgb(204, 204, 204); background-color: rgb(31, 31, 31); font-family: Consolas, &amp;quot;Courier New&amp;quot;, monospace; font-size: 14px; line-height: 19px; white-space: pre;&quot;&gt;split_prompt&lt;/div&gt;&lt;/div&gt;" style="whiteSpace=wrap;html=1;rounded=1;" vertex="1" parent="1">
          <mxGeometry x="200" y="535" width="120" height="60" as="geometry" />
        </mxCell>
        <mxCell id="zYhoFAcSyLCYX2WVD4FJ-15" style="edgeStyle=orthogonalEdgeStyle;rounded=0;orthogonalLoop=1;jettySize=auto;html=1;exitX=0.5;exitY=1;exitDx=0;exitDy=0;entryX=0;entryY=0.5;entryDx=0;entryDy=0;" edge="1" parent="1" source="zYhoFAcSyLCYX2WVD4FJ-5" target="zYhoFAcSyLCYX2WVD4FJ-13">
          <mxGeometry relative="1" as="geometry" />
        </mxCell>
        <mxCell id="zYhoFAcSyLCYX2WVD4FJ-5" value="&lt;div style=&quot;color: rgb(204, 204, 204); background-color: rgb(31, 31, 31); font-family: Consolas, &amp;quot;Courier New&amp;quot;, monospace; font-size: 14px; line-height: 19px; white-space: pre;&quot;&gt;&lt;div&gt;&amp;nbsp; &amp;nbsp; &amp;nbsp; &amp;nbsp; &lt;span style=&quot;color: #6a9955;&quot;&gt;# this is for prompts which look like&lt;/span&gt;&lt;/div&gt;&lt;div&gt;&amp;nbsp; &amp;nbsp; &amp;nbsp; &amp;nbsp; &lt;span style=&quot;color: #6a9955;&quot;&gt;# |0| a beautiful day |1| a sunny day |2| a rainy day&lt;/span&gt;&lt;/div&gt;&lt;div&gt;&amp;nbsp; &amp;nbsp; &amp;nbsp; &amp;nbsp; &lt;span style=&quot;color: #6a9955;&quot;&gt;# we want to parse it into a list of prompts with the loop index&lt;/span&gt;&lt;/div&gt;&lt;/div&gt;" style="whiteSpace=wrap;html=1;rounded=1;align=left;" vertex="1" parent="1">
          <mxGeometry x="-450" y="522.5" width="570" height="85" as="geometry" />
        </mxCell>
        <mxCell id="zYhoFAcSyLCYX2WVD4FJ-10" value="" style="edgeStyle=orthogonalEdgeStyle;rounded=0;orthogonalLoop=1;jettySize=auto;html=1;" edge="1" parent="1" source="zYhoFAcSyLCYX2WVD4FJ-7" target="zYhoFAcSyLCYX2WVD4FJ-9">
          <mxGeometry relative="1" as="geometry" />
        </mxCell>
        <mxCell id="zYhoFAcSyLCYX2WVD4FJ-7" value="&lt;div style=&quot;color: rgb(204, 204, 204); background-color: rgb(31, 31, 31); font-family: Consolas, &amp;quot;Courier New&amp;quot;, monospace; font-size: 14px; line-height: 19px; white-space: pre;&quot;&gt;refine_prompts_by_openai&lt;/div&gt;" style="whiteSpace=wrap;html=1;rounded=1;" vertex="1" parent="1">
          <mxGeometry x="155" y="675" width="210" height="60" as="geometry" />
        </mxCell>
        <mxCell id="zYhoFAcSyLCYX2WVD4FJ-12" value="" style="edgeStyle=orthogonalEdgeStyle;rounded=0;orthogonalLoop=1;jettySize=auto;html=1;" edge="1" parent="1" source="zYhoFAcSyLCYX2WVD4FJ-9" target="zYhoFAcSyLCYX2WVD4FJ-11">
          <mxGeometry relative="1" as="geometry" />
        </mxCell>
        <mxCell id="zYhoFAcSyLCYX2WVD4FJ-9" value="&lt;div style=&quot;color: rgb(204, 204, 204); background-color: rgb(31, 31, 31); font-family: Consolas, &amp;quot;Courier New&amp;quot;, monospace; font-size: 14px; line-height: 19px; white-space: pre;&quot;&gt;&lt;span style=&quot;color: #dcdcaa;&quot;&gt;append_score_to_prompts&lt;/span&gt;&lt;/div&gt;" style="whiteSpace=wrap;html=1;rounded=1;" vertex="1" parent="1">
          <mxGeometry x="160" y="800" width="200" height="60" as="geometry" />
        </mxCell>
        <mxCell id="zYhoFAcSyLCYX2WVD4FJ-14" value="" style="edgeStyle=orthogonalEdgeStyle;rounded=0;orthogonalLoop=1;jettySize=auto;html=1;" edge="1" parent="1" source="zYhoFAcSyLCYX2WVD4FJ-11" target="zYhoFAcSyLCYX2WVD4FJ-13">
          <mxGeometry relative="1" as="geometry" />
        </mxCell>
        <mxCell id="zYhoFAcSyLCYX2WVD4FJ-11" value="&lt;div style=&quot;color: rgb(204, 204, 204); background-color: rgb(31, 31, 31); font-family: Consolas, &amp;quot;Courier New&amp;quot;, monospace; font-size: 14px; line-height: 19px; white-space: pre;&quot;&gt;&lt;span style=&quot;color: #6a9955;&quot;&gt;clean prompt with T5&lt;/span&gt;&lt;/div&gt;&lt;div style=&quot;color: rgb(204, 204, 204); background-color: rgb(31, 31, 31); font-family: Consolas, &amp;quot;Courier New&amp;quot;, monospace; font-size: 14px; line-height: 19px; white-space: pre;&quot;&gt;&lt;div style=&quot;line-height: 19px;&quot;&gt;text_preprocessing&lt;/div&gt;&lt;/div&gt;" style="whiteSpace=wrap;html=1;rounded=1;" vertex="1" parent="1">
          <mxGeometry x="175" y="930" width="170" height="60" as="geometry" />
        </mxCell>
        <mxCell id="zYhoFAcSyLCYX2WVD4FJ-17" value="" style="edgeStyle=orthogonalEdgeStyle;rounded=0;orthogonalLoop=1;jettySize=auto;html=1;" edge="1" parent="1" source="zYhoFAcSyLCYX2WVD4FJ-13" target="zYhoFAcSyLCYX2WVD4FJ-16">
          <mxGeometry relative="1" as="geometry" />
        </mxCell>
        <mxCell id="zYhoFAcSyLCYX2WVD4FJ-13" value="&lt;div style=&quot;color: rgb(204, 204, 204); background-color: rgb(31, 31, 31); font-family: Consolas, &amp;quot;Courier New&amp;quot;, monospace; font-size: 14px; line-height: 19px; white-space: pre;&quot;&gt;&lt;span style=&quot;color: #6a9955;&quot;&gt;merge to obtain the final prompt&lt;/span&gt;&lt;/div&gt;" style="whiteSpace=wrap;html=1;rounded=1;" vertex="1" parent="1">
          <mxGeometry x="115" y="1060" width="290" height="60" as="geometry" />
        </mxCell>
        <mxCell id="zYhoFAcSyLCYX2WVD4FJ-16" value="" style="whiteSpace=wrap;html=1;rounded=1;arcSize=0;" vertex="1" parent="1">
          <mxGeometry x="-40" y="1200" width="600" height="550" as="geometry" />
        </mxCell>
        <mxCell id="zYhoFAcSyLCYX2WVD4FJ-18" value="Loop" style="text;html=1;align=center;verticalAlign=middle;whiteSpace=wrap;rounded=0;" vertex="1" parent="1">
          <mxGeometry x="-10" y="1210" width="60" height="30" as="geometry" />
        </mxCell>
      </root>
    </mxGraphModel>
  </diagram>
  <diagram id="I_tH5aE9IsEv51cvNvYS" name="classifier-free guidance">
    <mxGraphModel dx="1440" dy="857" grid="1" gridSize="10" guides="1" tooltips="1" connect="1" arrows="1" fold="1" page="1" pageScale="1" pageWidth="827" pageHeight="1169" math="0" shadow="0">
      <root>
        <mxCell id="0" />
        <mxCell id="1" parent="0" />
      </root>
    </mxGraphModel>
  </diagram>
</mxfile>
